HIERARCHY
ROOT SpineBase
{
  OFFSET 0.000000 0.000000 0.000000
  CHANNELS 6 Xposition Yposition Zposition Zrotation Xrotation Yrotation
  JOINT SpineMid
  {
    OFFSET 0.000000 34.258457 0.000000
    CHANNELS 3 Zrotation Xrotation Yrotation
    JOINT SpineShoulder
    {
      OFFSET -0.311649 25.648024 -0.850710
      CHANNELS 3 Zrotation Xrotation Yrotation
      JOINT Neck
      {
        OFFSET -0.224934 8.574018 -0.633394
        CHANNELS 3 Zrotation Xrotation Yrotation
        JOINT Head
        {
          OFFSET 0.389543 9.621111 4.826332
          CHANNELS 3 Zrotation Xrotation Yrotation
          End Site
          {
            OFFSET 0 0 0
          }
        }
      }
      JOINT ShoulderLeft
      {
        OFFSET -14.844774 -6.107302 -5.775501
        CHANNELS 3 Zrotation Xrotation Yrotation
        JOINT ElbowLeft
        {
          OFFSET -5.350537 -27.922049 4.834540
          CHANNELS 3 Zrotation Xrotation Yrotation
          JOINT WristLeft
          {
            OFFSET 8.597520 -27.004685 16.317998
            CHANNELS 3 Zrotation Xrotation Yrotation
            JOINT HandLeft
            {
              OFFSET 2.966933 -9.189148 5.818814
              CHANNELS 3 Zrotation Xrotation Yrotation
              JOINT HandTipLeft
              {
                OFFSET -0.738864 -2.373871 1.430856
                CHANNELS 3 Zrotation Xrotation Yrotation
                End Site
                {
                  OFFSET 0 0 0
                }
              }
              JOINT ThumbLeft
              {
                OFFSET -0.473590 3.566496 -4.372432
                CHANNELS 3 Zrotation Xrotation Yrotation
                End Site
                {
                  OFFSET 0 0 0
                }
              }
            }
          }
        }
      }
      JOINT ShoulderRight
      {
        OFFSET 14.284510 -4.748658 -8.441574
        CHANNELS 3 Zrotation Xrotation Yrotation
        JOINT ElbowRight
        {
          OFFSET 5.908316 -30.357923 2.359904
          CHANNELS 3 Zrotation Xrotation Yrotation
          JOINT WristRight
          {
            OFFSET -1.745522 -22.087621 9.528585
            CHANNELS 3 Zrotation Xrotation Yrotation
            JOINT HandRight
            {
              OFFSET -0.640375 -7.097561 5.205295
              CHANNELS 3 Zrotation Xrotation Yrotation
              JOINT HandTipRight
              {
                OFFSET 0.078357 -0.722549 0.382620
                CHANNELS 3 Zrotation Xrotation Yrotation
                End Site
                {
                  OFFSET 0 0 0
                }
              }
              JOINT ThumbRight
              {
                OFFSET -2.046579 -0.032604 -3.927856
                CHANNELS 3 Zrotation Xrotation Yrotation
                End Site
                {
                  OFFSET 0 0 0
                }
              }
            }
          }
        }
      }
    }
  }
  JOINT HipLeft
  {
    OFFSET -7.882458 2.030241 -2.459852
    CHANNELS 3 Zrotation Xrotation Yrotation
    JOINT KneeLeft
    {
      OFFSET -5.464012 -28.349978 -0.320016
      CHANNELS 3 Zrotation Xrotation Yrotation
      JOINT AnkleLeft
      {
        OFFSET 0.338560 -33.721067 0.358459
        CHANNELS 3 Zrotation Xrotation Yrotation
        JOINT FootLeft
        {
          OFFSET -0.242269 -2.722467 -9.261787
          CHANNELS 3 Zrotation Xrotation Yrotation
          End Site
          {
            OFFSET 0 0 0
          }
        }
      }
    }
  }
  JOINT HipRight
  {
    OFFSET 5.636330 1.805708 -4.042340
    CHANNELS 3 Zrotation Xrotation Yrotation
    JOINT KneeRight
    {
      OFFSET 5.264894 -27.908471 -3.683126
      CHANNELS 3 Zrotation Xrotation Yrotation
      JOINT AnkleRight
      {
        OFFSET 2.235939 -37.222632 -0.109406
        CHANNELS 3 Zrotation Xrotation Yrotation
        JOINT FootRight
        {
          OFFSET -1.213912 -6.805534 4.433265
          CHANNELS 3 Zrotation Xrotation Yrotation
          End Site
          {
            OFFSET 0 0 0
          }
        }
      }
    }
  }
}
MOTION
Frames: 13
Frame Time: 0.033333
92.914232 70.130930 270.345242 -0.000000 0.000000 6.676568 -0.000000 0.000000 -6.676568 -0.000000 0.000000 0.000000 -0.000000 0.000000 0.000000 0.000000 0.000000 0.000000 -0.000000 0.000000 0.000000 -0.000000 0.000000 0.000000 -0.000000 0.000000 0.000000 -0.000000 0.000000 0.000000 0.000000 0.000000 0.000000 0.000000 0.000000 0.000000 -0.000000 0.000000 0.000000 -0.000000 0.000000 0.000000 -0.000000 0.000000 0.000000 -0.000000 0.000000 0.000000 0.000000 0.000000 0.000000 0.000000 0.000000 0.000000 -0.000000 0.000000 -6.676568 -0.000000 0.000000 0.000000 -0.000000 0.000000 0.000000 0.000000 0.000000 0.000000 -0.000000 0.000000 -6.676568 -0.000000 0.000000 0.000000 -0.000000 0.000000 0.000000 0.000000 0.000000 0.000000
92.910564 70.136103 270.387629 0.015348 -0.018405 6.998988 -0.012991 0.020138 -6.998983 -0.000000 0.000000 0.000000 -0.000000 0.000000 0.000000 0.000000 0.000000 0.000000 -0.000000 0.000000 0.000000 -0.000000 0.000000 0.000000 -0.000000 0.000000 0.000000 -0.000000 0.000000 0.000000 0.000000 0.000000 0.000000 0.000000 0.000000 0.000000 0.101967 0.869701 0.176492 -0.104658 -0.869381 -0.178060 -0.744115 21.471715 -2.744488 7.874621 -0.504174 11.146765 0.000000 0.000000 0.000000 0.000000 0.000000 0.000000 -0.012991 0.020138 -6.998983 -0.000000 0.000000 0.000000 -0.340030 0.764794 1.066462 0.000000 0.000000 0.000000 -0.012991 0.020138 -6.998983 -0.000000 0.000000 0.000000 -2.540065 32.690098 -8.477871 0.000000 0.000000 0.000000
92.907483 70.142028 270.427222 0.029942 -0.034587 7.291086 -0.025311 0.038107 -7.291069 -0.000000 0.000000 0.000000 -0.863786 0.379013 0.420002 0.000000 0.000000 0.000000 -0.000000 0.000000 0.000000 -0.000000 0.000000 0.000000 -0.000000 0.000000 0.000000 -0.022414 0.775604 -0.255795 0.000000 0.000000 0.000000 0.000000 0.000000 0.000000 0.202897 1.674405 0.338974 -0.212889 -1.673164 -0.345047 -0.392102 41.952729 -5.698152 11.108011 -12.404932 20.014461 0.000000 0.000000 0.000000 0.000000 0.000000 0.000000 -0.025311 0.038107 -7.291069 -0.000000 0.000000 0.000000 -0.693515 1.599977 2.124337 0.000000 0.000000 0.000000 -0.025311 0.038107 -7.291069 -0.000000 0.000000 0.000000 6.694921 69.886310 -26.817978 0.000000 0.000000 0.000000
92.904988 70.148705 270.464022 0.043782 -0.048543 7.552939 -0.037022 0.053876 -7.552903 -0.000000 0.000000 0.000000 -1.187023 0.449427 0.580548 0.000000 0.000000 0.000000 -0.000000 0.000000 0.000000 -0.000000 0.000000 0.000000 -0.000000 0.000000 0.000000 -0.161707 1.144174 -0.454523 0.000000 0.000000 0.000000 0.000000 0.000000 0.000000 0.301897 2.393804 0.483650 -0.322368 -2.391135 -0.496685 1.117224 56.665467 -8.857108 13.999179 -22.460255 27.010885 0.000000 0.000000 0.000000 0.000000 0.000000 0.000000 -0.037022 0.053876 -7.552903 -0.000000 0.000000 0.000000 -1.059464 2.493650 3.167496 0.000000 0.000000 0.000000 -0.037022 0.053876 -7.552903 -0.000000 0.000000 0.000000 85.748371 82.877168 -110.284627 0.000000 0.000000 0.000000
92.903079 70.156134 270.498029 0.056866 -0.060270 7.784609 -0.048179 0.067417 -7.784550 -0.000000 0.000000 0.000000 -1.439840 0.443524 0.708190 0.000000 0.000000 0.000000 -0.000000 0.000000 0.000000 -0.000000 0.000000 0.000000 -0.000000 0.000000 0.000000 -0.386740 1.501703 -0.700258 0.000000 0.000000 0.000000 0.000000 0.000000 0.000000 0.398020 3.008079 0.606885 -0.430436 -3.003616 -0.628621 3.397574 65.689662 -12.125418 16.565864 -28.604097 32.245855 0.000000 0.000000 0.000000 0.000000 0.000000 0.000000 -0.048179 0.067417 -7.784550 -0.000000 0.000000 0.000000 -1.436494 3.434058 4.190480 0.000000 0.000000 0.000000 -0.048179 0.067417 -7.784550 -0.000000 0.000000 0.000000 129.524585 77.541488 -156.119176 0.000000 0.000000 0.000000
92.901755 70.164315 270.529242 0.069193 -0.069767 7.986146 -0.058829 0.078704 -7.986064 -0.000000 0.000000 0.000000 -1.623646 0.363131 0.803232 0.000000 0.000000 0.000000 -0.000000 0.000000 0.000000 -0.000000 0.000000 0.000000 -0.000000 0.000000 0.000000 -0.698280 1.849716 -0.993149 0.000000 0.000000 0.000000 0.000000 0.000000 0.000000 0.490252 3.499060 0.705420 -0.534260 -3.492619 -0.736683 5.714240 70.654040 -15.020971 18.634982 -31.678714 36.069519 0.000000 0.000000 0.000000 0.000000 0.000000 0.000000 -0.058829 0.078704 -7.986064 -0.000000 0.000000 0.000000 -1.822889 4.409862 5.188548 0.000000 0.000000 0.000000 -0.058829 0.078704 -7.986064 -0.000000 0.000000 0.000000 136.914428 74.282419 -164.546142 0.000000 0.000000 0.000000
92.903423 70.176483 270.560669 0.074730 -0.085118 8.150864 -0.061907 0.094854 -8.150757 -0.000000 0.000000 0.000000 -1.730735 0.088144 0.865155 0.000000 0.000000 0.000000 -0.000000 0.000000 0.000000 -0.000000 0.000000 0.000000 -0.000000 0.000000 0.000000 -1.388672 2.153750 -1.492589 0.000000 0.000000 0.000000 0.000000 0.000000 0.000000 0.557540 3.909737 0.786857 -0.612557 -3.901508 -0.826751 9.668336 75.220616 -19.291963 19.773289 -32.020547 40.030056 0.000000 0.000000 0.000000 0.000000 0.000000 0.000000 -0.061907 0.094854 -8.150757 -0.000000 0.000000 0.000000 -2.848882 7.153899 7.590102 0.000000 0.000000 0.000000 -0.061907 0.094854 -8.150757 -0.000000 0.000000 0.000000 134.450052 75.778167 -162.397594 0.000000 0.000000 0.000000
92.903905 70.188251 270.586844 0.087340 -0.089493 8.297301 -0.073511 0.101160 -8.297168 -0.000000 0.000000 0.000000 -1.754986 -0.165477 0.884680 0.000000 0.000000 0.000000 -0.000000 0.000000 0.000000 -0.000000 0.000000 0.000000 -0.000000 0.000000 0.000000 -2.036736 2.517406 -1.981770 0.000000 0.000000 0.000000 0.000000 0.000000 0.000000 0.493942 3.856575 0.773989 -0.547188 -3.849392 -0.809008 8.433835 72.975753 -16.951539 17.921812 -25.028114 40.249359 0.000000 0.000000 0.000000 0.000000 0.000000 0.000000 -0.073511 0.101160 -8.297168 -0.000000 0.000000 0.000000 -4.023287 10.033568 10.076343 0.000000 0.000000 0.000000 -0.073511 0.101160 -8.297168 -0.000000 0.000000 0.000000 125.116039 79.186128 -152.752752 0.000000 0.000000 0.000000
92.905099 70.195069 270.608105 0.102639 -0.087749 8.401942 -0.088716 0.101804 -8.401785 -0.000000 0.000000 0.000000 -1.735075 -0.284373 0.878194 0.000000 0.000000 0.000000 0.261899 -0.830581 0.206238 -0.258934 0.831510 -0.202461 -0.000000 0.000000 0.000000 -2.513480 2.971451 -2.395864 0.000000 0.000000 0.000000 0.000000 0.000000 0.000000 0.848823 4.286681 0.870149 -0.916311 -4.272788 -0.936100 5.731134 70.323247 -14.779234 19.585323 -21.744214 42.334777 0.000000 0.000000 0.000000 0.000000 0.000000 0.000000 -0.088716 0.101804 -8.401785 -0.000000 0.000000 0.000000 -3.121114 7.761722 8.208898 0.000000 0.000000 0.000000 -0.088716 0.101804 -8.401785 -0.000000 0.000000 0.000000 74.481192 83.504110 -100.884977 0.000000 0.000000 0.000000
92.902867 70.200862 270.623050 0.115915 -0.078043 8.472063 -0.103152 0.094269 -8.471899 -0.000000 0.000000 0.000000 -1.663947 -0.351320 0.844670 0.000000 0.000000 0.000000 0.353833 -0.889753 0.234337 -0.350234 0.891175 -0.228865 -0.000000 0.000000 0.000000 -2.801783 3.245651 -2.644765 0.000000 0.000000 0.000000 0.000000 0.000000 0.000000 0.890028 4.090698 0.834921 -0.951900 -4.076767 -0.900588 2.760555 60.494086 -9.821751 24.572120 -19.998216 42.746752 0.000000 0.000000 0.000000 0.000000 0.000000 0.000000 -0.103152 0.094269 -8.471899 -0.000000 0.000000 0.000000 -3.147463 7.750808 8.285293 0.000000 0.000000 0.000000 -0.103152 0.094269 -8.471899 -0.000000 0.000000 0.000000 73.856280 83.542747 -100.412175 0.000000 0.000000 0.000000
92.898313 70.207836 270.636079 0.127685 -0.067908 8.535925 -0.116191 0.086107 -8.535762 -0.000000 0.000000 0.000000 -1.559345 -0.325399 0.791703 0.000000 0.000000 0.000000 0.516002 -0.944115 0.274359 -0.511546 0.946537 -0.265882 -0.000000 0.000000 0.000000 -2.966179 3.329964 -2.764395 0.000000 0.000000 0.000000 0.000000 0.000000 0.000000 0.841205 3.760942 0.770853 -0.893603 -3.748855 -0.827717 -0.115375 47.539088 -6.767090 23.556024 -13.845759 35.567220 0.000000 0.000000 0.000000 0.000000 0.000000 0.000000 -0.116191 0.086107 -8.535762 -0.000000 0.000000 0.000000 -3.168326 7.755414 8.342480 0.000000 0.000000 0.000000 -0.116191 0.086107 -8.535762 -0.000000 0.000000 0.000000 100.152888 82.717061 -127.276346 0.000000 0.000000 0.000000
92.894397 70.212604 270.649196 0.139411 -0.063153 8.573693 -0.128438 0.083230 -8.573523 -0.000000 0.000000 0.000000 -1.475963 -0.215872 0.746708 0.000000 0.000000 0.000000 0.740221 -1.058102 0.337643 -0.734100 1.062358 -0.324002 -0.000000 0.000000 0.000000 -2.944136 3.281336 -2.737064 0.000000 0.000000 0.000000 0.000000 0.000000 0.000000 0.941805 3.739250 0.771180 -0.994113 -3.725702 -0.834257 -2.078907 45.312100 -7.140213 26.930899 -13.647682 37.536700 0.000000 0.000000 0.000000 0.000000 0.000000 0.000000 -0.128438 0.083230 -8.573523 -0.000000 0.000000 0.000000 -3.179214 7.780494 8.366618 0.000000 0.000000 0.000000 -0.128438 0.083230 -8.573523 -0.000000 0.000000 0.000000 126.112498 78.975620 -153.997892 0.000000 0.000000 0.000000
92.888211 70.218486 270.655384 0.146956 -0.054910 8.577339 -0.137123 0.076213 -8.577177 -0.000000 0.000000 0.000000 -1.444568 0.049297 0.722782 0.000000 0.000000 0.000000 0.810993 -0.955155 0.330186 -0.805588 0.959717 -0.316679 -0.000000 0.000000 0.000000 -2.803287 3.190588 -2.628911 0.000000 0.000000 0.000000 0.000000 0.000000 0.000000 1.112056 3.894866 0.807550 -1.169476 -3.878036 -0.884958 -2.197394 56.383402 -9.794217 29.889911 -24.425194 43.297906 0.000000 0.000000 0.000000 0.000000 0.000000 0.000000 -0.137123 0.076213 -8.577177 -0.000000 0.000000 0.000000 -3.201977 7.819708 8.420332 0.000000 0.000000 0.000000 -0.137123 0.076213 -8.577177 -0.000000 0.000000 0.000000 138.506361 73.468803 -167.222098 0.000000 0.000000 0.000000
